<svg width="27" height="28" viewBox="0 0 27 28" fill="none" xmlns="http://www.w3.org/2000/svg">
<path d="M1.5 1.5H3.67501C5.02501 1.5 6.0875 2.6625 5.975 4L4.9375 16.45C4.7625 18.4875 6.37499 20.2375 8.42499 20.2375H21.7375C23.5375 20.2375 25.1125 18.7625 25.25 16.975L25.925 7.60001C26.075 5.52501 24.5 3.83749 22.4125 3.83749H6.27501M10.25 9H25.25M20.875 24.9375C20.875 25.8004 20.1754 26.5 19.3125 26.5C18.4496 26.5 17.75 25.8004 17.75 24.9375C17.75 24.0746 18.4496 23.375 19.3125 23.375C20.1754 23.375 20.875 24.0746 20.875 24.9375ZM10.875 24.9375C10.875 25.8004 10.1754 26.5 9.3125 26.5C8.44956 26.5 7.75 25.8004 7.75 24.9375C7.75 24.0746 8.44956 23.375 9.3125 23.375C10.1754 23.375 10.875 24.0746 10.875 24.9375Z" stroke="#292D32" stroke-width="1.5" stroke-miterlimit="10" stroke-linecap="round" stroke-linejoin="round"/>
</svg>
