<svg width="150" height="150" viewBox="0 0 150 150" fill="none" xmlns="http://www.w3.org/2000/svg">
<path fill-rule="evenodd" clip-rule="evenodd" d="M127.553 112.618C150.523 92.1231 120.867 80.429 126.332 63.1098C131.798 45.7905 145.632 19.7446 94.0139 24.3334C42.3957 28.9222 -0.458301 81.0565 17.9438 105.593C36.346 130.129 104.583 133.112 127.553 112.618Z" fill="#64FCD9"/>
<path fill-rule="evenodd" clip-rule="evenodd" d="M84.9398 70.6018C86.4309 71.3259 87.922 72.0499 89.4131 72.774C91.7622 73.9146 94.1517 75.0828 96.0458 76.8766C97.9399 78.6704 99.2948 81.222 99.0108 83.8103C98.6771 86.8527 96.2642 89.1965 93.9985 91.263C91.045 93.9569 88.0916 96.6507 85.1381 99.3446C83.8438 100.525 82.4264 102.206 83.1235 103.811C84.9338 107.977 86.5736 112.717 84.9275 116.951C84.4627 118.147 83.5005 119.381 82.2152 119.322C81.2588 119.278 80.5004 118.529 79.8853 117.798C77.4402 114.893 75.6259 111.463 74.6022 107.811C73.2914 103.135 73.4514 97.6546 76.6414 93.9845C79.1201 91.1326 83.3914 89.2148 83.6552 85.4513C78.8259 81.3653 71.84 79.9728 65.8049 81.8934C59.7697 83.8139 54.8871 88.9832 53.3288 95.1018C52.4802 98.434 54.3798 101.864 56.7163 104.394C59.0529 106.923 61.919 109.02 63.7168 111.954C67.3324 117.855 65.754 125.412 64.0621 132.117C63.4751 134.444 59.9323 134.832 58.1686 133.199C56.4049 131.565 56.1012 128.897 56.2881 126.505C56.475 124.113 57.0354 121.695 56.5654 119.342C55.3521 113.269 48.2174 110.497 44.7213 105.378C42.0717 101.498 41.7067 96.4216 42.6877 91.8317C43.6688 87.2417 45.8627 83.0132 48.0332 78.8484C43.9941 72.6871 42.2984 65.0396 43.3564 57.7563C43.8902 54.0814 39.0357 51.2539 39.5412 47.575C39.9447 44.6388 43.4019 43.313 46.3241 42.7606C51.8859 41.7092 57.5737 41.3206 63.2275 41.6055C64.4916 41.6692 65.0479 39.8394 64.4148 38.7473C63.7816 37.6552 62.5455 37.093 61.5216 36.3514C59.459 34.8574 58.163 32.5019 57.4485 30.0629C56.5315 26.9329 56.5297 23.3789 58.2329 20.5947C58.6585 19.8988 59.3903 18.8675 60.5037 19.8669C60.8378 18.1225 64.3843 16.4459 66.6519 17.3824C68.0111 17.9437 69.4593 16.7926 70.323 15.6059C71.1867 14.4192 72.0222 12.9862 73.4575 12.6642C76.0275 12.0876 77.6734 15.5143 77.3774 18.1225C77.0814 20.7307 75.9302 23.4862 77.0604 25.8571C77.4902 26.7586 78.2345 27.5392 78.3772 28.527C78.501 29.3839 78.2792 29.0498 77.7967 31.0227C77.3142 32.9957 76.1518 33.6293 75.6726 34.7208C74.935 36.4008 75.0458 37.8765 73.5046 39.3633C73.2453 39.6135 73.7734 40.1869 73.5869 40.6118C77.3827 40.666 80.2663 43.8199 83.2041 46.2153C86.8578 49.1944 91.3275 51.2784 96.0311 51.6826C100.735 52.0869 105.657 50.7117 109.168 47.568C110.543 46.3373 113.823 47.9451 114.062 46.1191C114.108 45.6461 113.982 45.4424 113.533 45.3261C113.3 45.2658 112.75 45.3911 112.579 45.172C112.078 44.5301 114.994 43.4236 114.871 44.305C114.84 44.5307 114.707 44.6975 114.724 44.8438C114.773 45.269 115.016 45.4001 115.391 45.4751C116.181 45.5243 117.313 44.9843 117.786 44.305C118.102 43.8499 117.979 43.7292 117.73 43.7091C117.324 43.6762 116.585 43.9124 116.888 43.3958C117.26 42.7606 118.221 42.1583 119.135 42.7112C119.332 42.8306 119.263 43.0624 119.162 43.2901C118.976 43.7077 118.683 44.1116 119.732 43.7832C121.354 43.2757 121.447 43.3708 121.866 43.4948C122.284 43.6188 122.9 44.3551 123.293 45.0427C124.103 46.4578 124.934 47.942 125.01 49.5695C125.086 51.1969 124.144 52.9964 122.542 53.3218C122.527 53.7954 122.76 54.2416 123.112 54.5555C123.497 54.8974 124.484 54.6891 124.318 54.9946C123.779 55.9873 122.466 56.2419 121.433 55.8946C121.149 55.7993 121.804 55.3106 121.866 54.9719C121.965 54.4298 121.852 53.8459 121.52 53.4029C120.586 53.7972 119.651 54.1915 118.716 54.5858C118.987 54.9315 118.863 55.3418 119.135 55.6874C119.391 56.0138 120.049 55.9311 120.159 56.3944C120.279 56.8981 119.308 57.1095 118.806 57.1566C118.256 57.2083 117.401 57.2645 117.145 56.8981C116.854 56.4816 117.766 56.3482 117.808 55.9124C117.854 55.4366 117.68 54.9281 117.26 54.698C116.457 54.257 115.305 55.069 115.455 55.9702C115.833 58.2407 114.889 60.6822 113.08 62.1132C111.271 63.5442 108.67 63.9068 106.536 63.0255C104.607 62.2287 102.47 63.2537 100.473 63.8646C95.9474 65.2497 90.7828 64.3664 86.9794 61.5566C86.7599 64.6976 86.1563 68.0998 84.1412 70.4157C84.468 70.6018 84.2999 70.6018 84.9398 70.6018Z" fill="white"/>
<ellipse cx="64.8076" cy="35.5" rx="1.1" ry="1.09638" fill="#FFB61D"/>
<ellipse cx="72.7" cy="33.3" rx="1.1" ry="1.1" fill="#FFB61D"/>
<path fill-rule="evenodd" clip-rule="evenodd" d="M79.1236 82.2974C78.6285 82.0755 78.1326 81.8532 77.6335 81.6367C73.9803 80.052 69.5985 78.9123 66.1516 80.9036C65.6252 77.553 69.2304 74.994 72.5481 74.236C73.458 74.0281 74.3969 73.8806 75.3359 73.7332C77.8205 73.343 80.3056 72.9527 82.256 71.4422C85.1519 69.1996 85.9241 65.2023 86.1789 61.5567C89.9823 64.3664 95.1469 65.2497 99.6729 63.8647C100.018 63.759 100.368 63.6409 100.72 63.5219C102.403 62.9536 104.14 62.3667 105.736 63.0256C107.869 63.9068 110.47 63.5442 112.279 62.1133C114.088 60.6823 115.032 58.2408 114.655 55.9703C114.505 55.069 115.657 54.2571 116.46 54.698C116.879 54.9282 117.054 55.4367 117.007 55.9124C116.989 56.1075 116.795 56.242 116.614 56.3684C116.39 56.5244 116.184 56.6681 116.344 56.8982C116.6 57.2646 117.456 57.2083 118.006 57.1567C118.507 57.1096 119.478 56.8982 119.358 56.3945C119.295 56.129 119.052 56.0428 118.808 55.9561C118.626 55.8916 118.444 55.8268 118.334 55.6875C118.199 55.5147 118.162 55.3257 118.125 55.1367C118.088 54.9477 118.051 54.7587 117.915 54.5858L120.72 53.4029C121.051 53.846 121.164 54.4298 121.065 54.972C121.038 55.1176 120.902 55.291 120.778 55.4489C120.613 55.6582 120.47 55.8403 120.632 55.8947C121.666 56.242 122.979 55.9874 123.518 54.9947C123.602 54.8393 123.388 54.8168 123.107 54.7872C122.835 54.7587 122.501 54.7235 122.312 54.5555C121.959 54.2416 121.727 53.7954 121.741 53.3218C123.343 52.9964 124.286 51.1969 124.21 49.5695C124.134 47.9421 123.303 46.4579 122.493 45.0428C122.099 44.3551 121.484 43.6189 121.065 43.4949C121.039 43.4872 121.014 43.4796 120.99 43.4722C120.629 43.3614 120.452 43.3073 118.932 43.7833C117.99 44.078 118.13 43.7828 118.302 43.4172C118.322 43.3755 118.342 43.3329 118.361 43.2901C118.462 43.0624 118.532 42.8307 118.334 42.7113C117.421 42.1583 116.46 42.7607 116.087 43.3958C115.865 43.7752 116.204 43.7486 116.561 43.7208C116.691 43.7107 116.822 43.7004 116.93 43.7091C117.178 43.7292 117.302 43.85 116.985 44.3051C116.513 44.9844 115.38 45.5243 114.59 45.4752C114.215 45.4002 113.972 45.269 113.923 44.8439C113.914 44.7661 113.948 44.6825 113.986 44.5874C114.019 44.5036 114.056 44.4108 114.071 44.3051C114.194 43.4237 111.278 44.5301 111.778 45.1721C111.89 45.3148 112.162 45.3114 112.403 45.3083C112.531 45.3067 112.651 45.3051 112.732 45.3261C113.182 45.4425 113.307 45.6461 113.262 46.1192C113.131 47.1163 112.094 47.0895 110.955 47.0601C110.009 47.0357 108.992 47.0094 108.368 47.5681C104.856 50.7118 99.9341 52.0869 95.2305 51.6827C90.527 51.2784 86.0572 49.1944 82.4036 46.2154C81.8993 45.8042 81.3967 45.3707 80.8907 44.9344C78.4489 42.8286 75.9306 40.6567 72.7864 40.6118C72.8786 40.4017 72.796 40.1551 72.7203 39.9294C72.6431 39.6988 72.573 39.4898 72.7041 39.3634C73.5158 38.5803 73.9305 37.0547 74.2896 35.7336C74.6123 34.5463 74.8902 33.5241 75.3711 33.3542C76.3333 33.0143 76.6156 32.1661 76.9412 31.1876C76.9593 31.133 76.9776 31.0781 76.9962 31.0228C77.1072 30.6916 77.2063 30.4241 77.2908 30.1962C77.549 29.4993 77.67 29.1728 77.5767 28.527C77.4836 27.883 77.1348 27.327 76.7842 26.7682C76.597 26.4699 76.4094 26.1709 76.2599 25.8572C75.4376 24.1323 75.8228 22.2039 76.2078 20.2768C76.352 19.555 76.4962 18.8333 76.5768 18.1226C76.8728 15.5144 75.2269 12.0877 72.6569 12.6643C71.4045 12.9452 70.6088 14.0721 69.8526 15.1431C69.7421 15.2995 69.6325 15.4547 69.5225 15.6059C68.6588 16.7927 67.2105 17.9437 65.8514 17.3824C63.5838 16.446 60.0372 18.1226 59.7031 19.867C58.5897 18.8676 57.858 19.8989 57.4323 20.5947C55.7292 23.379 55.7309 26.933 56.6479 30.063C57.3625 32.502 58.6585 34.8575 60.7211 36.3515C60.9833 36.5414 61.2595 36.7196 61.5358 36.8979C62.3386 37.4158 63.1433 37.9349 63.6142 38.7473C64.2474 39.8394 63.6911 41.6693 62.4269 41.6056C56.7731 41.3206 51.0854 41.7093 45.5236 42.7607C42.6013 43.3131 39.1442 44.6389 38.7407 47.5751C38.4885 49.4105 39.5705 51.0341 40.6519 52.6567C41.7379 54.2863 42.8234 55.915 42.5559 57.7564C41.4978 65.0397 43.1935 72.6872 47.2326 78.8485C45.0621 83.0133 42.8682 87.2418 41.8872 91.8317C40.9061 96.4216 41.2711 101.498 43.9208 105.378C45.3015 107.399 47.2498 109.055 49.1768 110.693C52.1288 113.202 55.0307 115.668 55.7648 119.342C56.1099 121.07 55.8996 122.832 55.6895 124.593C55.6133 125.231 55.5372 125.869 55.4875 126.505C55.3007 128.897 55.6044 131.565 57.368 133.199C58.3752 134.131 59.9625 134.405 61.2483 134.035C61.2373 134.231 61.2259 134.414 61.2152 134.587C61.1567 135.525 61.1184 136.14 61.2834 136.87C61.3264 137.06 61.3963 137.276 61.5789 137.345C61.9426 137.483 62.1851 136.928 62.1605 136.551C62.0674 135.124 61.889 134.319 61.7173 133.864C62.4653 133.532 63.0519 132.948 63.2616 132.117C64.9534 125.412 66.5319 117.856 62.9163 111.955C61.7218 110.005 60.0558 108.425 58.3868 106.842C57.5438 106.043 56.6999 105.243 55.9158 104.394C53.5792 101.864 51.6797 98.4341 52.5283 95.1019C54.0865 88.9832 58.9692 83.814 65.0043 81.8934C71.0395 79.9729 78.0254 81.3653 82.8546 85.4513C82.675 88.0148 80.6361 89.7219 78.5708 91.4512C77.6039 92.2608 76.6312 93.0752 75.8409 93.9846C72.6509 97.6547 72.4909 103.135 73.8017 107.811C74.8254 111.463 76.6397 114.893 79.0848 117.798C79.6999 118.529 80.4583 119.278 81.4147 119.322C82.7 119.381 83.6622 118.147 84.1269 116.951C85.773 112.717 84.1333 107.977 82.3229 103.811C81.6258 102.206 83.0432 100.525 84.3375 99.3446L93.198 91.2631C95.4637 89.1966 97.8765 86.8527 98.2103 83.8103C98.4942 81.222 97.1394 78.6704 95.2453 76.8766C93.3512 75.0829 90.9617 73.9147 88.6126 72.774L84.1393 70.6019C85.6138 72.4903 87.8395 73.5504 90.0309 74.5941C90.4543 74.7958 90.8764 74.9968 91.2915 75.2031C93.8555 76.4771 96.4877 78.3366 97.0748 81.1308C97.7961 84.5635 95.1755 87.7143 92.7459 90.252C89.6694 93.4654 86.5661 96.702 82.9114 99.244C81.6678 100.109 80.2889 100.914 78.7733 100.968C77.2578 101.022 75.609 100.075 75.3711 98.5831C75.1562 97.2358 76.0877 96.001 76.9637 94.9526L83.4414 87.1991C84.426 86.0207 85.7228 85.7141 87.2657 85.3492C87.8084 85.2209 88.3816 85.0854 88.9823 84.9021C85.3475 85.0869 82.2526 83.6998 79.1236 82.2974ZM52.9072 61.459C53.1687 63.8058 53.8943 66.1558 55.3657 68.0067C56.8371 69.8576 59.1297 71.1461 61.4972 71.0437C62.29 71.0095 62.544 69.8342 62.0733 69.1977C61.665 68.6455 60.9898 68.3943 60.3352 68.1506C60.2351 68.1134 60.1355 68.0763 60.0374 68.0383C59.2976 67.7522 58.5088 67.2735 58.3753 66.4941C60.4627 68.1122 63.5791 68.2624 65.8135 66.8524C66.5912 69.0765 69.171 70.4119 71.5058 70.0446C73.8407 69.6774 75.7922 67.818 76.5666 65.5928C76.5814 65.5502 76.596 65.5073 76.6107 65.4642C76.7283 65.1179 76.8493 64.7619 77.1166 64.5166C77.3656 64.2881 77.7052 64.191 78.0315 64.1011L84.4155 62.3421C84.574 62.2984 84.7538 62.2573 84.8944 62.3423C85.0443 62.4329 85.0857 62.6278 85.1077 62.8012C85.5493 66.2908 83.5832 69.9562 80.426 71.5295C78.7331 72.373 76.7985 72.6487 74.8805 72.9219C72.3781 73.2785 69.9039 73.6311 68.0317 75.2356C67.0127 76.1088 66.3059 77.2558 65.5977 78.4052C65.2593 78.9542 64.9207 79.5038 64.5475 80.0243C62.2592 83.2161 58.0565 85.3775 54.324 84.1303C52.1817 83.4144 50.5165 81.7204 49.1478 79.9291C45.0276 74.5364 42.8527 67.6991 43.1032 60.9262C43.1487 59.6974 43.2753 58.4532 43.7213 57.3066C46.5499 60.5819 49.8204 63.4778 53.4173 65.8917C53.2916 65.2416 52.8396 64.7081 52.3897 64.2209C51.1023 62.8269 49.6815 61.5215 48.2622 60.2175C44.9617 57.1851 41.6696 54.1605 40.0844 50.0482C39.7359 49.1443 39.4782 48.1574 39.6928 47.213C40.1797 45.071 42.7063 44.1793 44.8669 43.7445C50.0559 42.7002 55.3516 42.1829 60.6454 42.2032C60.9265 45.4705 63.6549 48.3926 66.9177 48.8228C70.1804 49.253 73.6189 47.0772 74.535 43.9276C74.5622 43.8341 74.5877 43.7394 74.6132 43.6445C74.7271 43.2212 74.8421 42.7936 75.1142 42.4548C75.4474 42.04 76.125 41.8361 76.5138 42.1996C79.3963 44.894 82.421 47.4845 85.8679 49.4115C89.3148 51.3385 93.2311 52.5813 97.1796 52.407C90.4349 54.8588 83.5408 56.9026 76.5479 58.5233C76.0131 58.6473 75.3508 58.7285 75.0071 58.3019C73.7891 56.7902 71.8029 55.9275 69.8623 56.0673C67.9217 56.2071 66.0807 57.3455 65.0937 59.0162C64.7363 59.621 63.8445 59.545 63.1662 59.3559C61.7551 58.9623 60.303 58.3572 59.4692 57.1567C59.3284 56.954 59.2064 56.7359 59.0847 56.5183C58.8464 56.0922 58.609 55.6677 58.2331 55.3634C57.7013 54.9331 57.0048 54.8282 56.315 54.7243C56.1232 54.6954 55.932 54.6666 55.745 54.6309C53.6156 54.2246 51.7298 52.7157 50.8719 50.7318C52.8792 49.3923 55.5901 50.028 57.8064 50.986C58.1555 51.1369 58.5054 51.2953 58.8566 51.4544C60.7357 52.3054 62.6529 53.1736 64.6798 52.9881C66.4032 52.8304 67.9073 51.9368 69.4179 51.0393C70.7534 50.2459 72.0938 49.4495 73.5953 49.1561C77.4473 48.4032 81.2283 51.2613 83.0317 54.7353C83.0455 54.7619 83.0593 54.7886 83.0731 54.8154C83.3682 55.3857 83.6872 56.0025 84.2788 56.242C83.6753 52.8606 81.1263 49.8947 77.8659 48.7802C74.6056 47.6657 70.7661 48.4477 68.2063 50.7477C66.6179 52.1748 64.2043 52.2757 62.1313 51.7511C60.9637 51.4557 59.8509 50.9931 58.7373 50.5302C57.8738 50.1712 57.0098 49.812 56.1194 49.5305C54.0808 48.8858 51.7264 48.6951 49.9118 49.8232C49.3671 48.6272 48.6383 47.5145 47.7588 46.5362C48.6305 51.5205 53.1929 55.6185 58.2587 55.9672L55.4476 57.0314C54.7908 57.28 54.11 57.5442 53.628 58.0536C52.8027 58.9258 52.7744 60.2676 52.9072 61.459ZM51.5205 96.3222C51.2473 97.694 51.0974 99.1804 51.7132 100.437C52.0451 101.114 52.5751 101.671 53.0963 102.218L53.132 102.256C56.2669 105.548 59.2115 109.02 61.9464 112.649C60.7321 113.811 59.3803 114.831 57.9279 115.68C57.5233 115.917 57.0864 116.146 56.6174 116.138C55.9185 116.125 55.3505 115.599 54.8588 115.104C51.4245 111.646 48.0789 108.102 44.8263 104.474C43.7921 103.321 42.7406 102.113 42.2705 100.639C41.6731 98.7653 42.0961 96.7381 42.5226 94.8187C43.6986 89.5256 44.9358 84.088 48.0025 79.6099C49.7253 82.6923 52.9158 84.917 56.4124 85.474C53.988 88.6602 52.3014 92.4003 51.5205 96.3222ZM73.368 37.3113C72.855 38.3801 71.9897 39.3242 70.8675 39.7156C69.3714 40.2376 67.7259 39.7154 66.2611 39.1116C65.5 38.7979 64.7309 38.4498 64.1414 37.8765C63.641 37.3899 63.2982 36.768 62.9807 36.1473C61.9919 34.2146 61.1748 32.1947 60.5421 30.1189C60.0188 28.4024 59.7492 26.2303 61.142 25.0935C62.7329 26.3101 64.8726 26.6153 66.8647 26.3845C68.6358 26.1793 70.3324 25.5926 72.0201 25.0091C72.2307 24.9363 72.4411 24.8636 72.6515 24.7916C72.8918 24.7095 73.1763 24.6336 73.3837 24.7797C73.5424 24.8916 73.5985 25.0968 73.6416 25.2856C74.2824 28.0943 74.4691 31.0054 74.1923 33.8726C74.0785 35.0518 73.881 36.2426 73.368 37.3113ZM79.7601 117.551C76.9082 113.763 74.9977 109.276 74.2455 104.6C73.9225 102.593 73.8181 100.489 74.4896 98.5686C75.1308 101.083 78.168 102.689 80.6175 101.809C81.2568 103.121 81.838 104.461 82.3589 105.825C83.7274 109.406 84.6589 113.482 83.1433 117.005C82.779 117.851 82.0593 118.753 81.1447 118.618C80.5518 118.53 80.1197 118.029 79.7601 117.551ZM60.7717 19.7368C61.4927 18.4501 63.079 17.7964 64.5528 17.92C64.8967 17.9489 65.2393 17.9924 65.575 18.0351C66.6387 18.1702 67.6334 18.2966 68.3847 17.92C69.5284 17.3467 70.0064 16.5497 70.4928 15.7385C70.8176 15.197 71.1461 14.6491 71.6791 14.1572C72.0162 13.846 72.3921 13.5473 72.841 13.449C73.7589 13.2478 74.6403 13.9443 75.1631 14.7226C76.2852 16.3929 76.4333 18.6663 75.5373 20.4671C74.5505 22.4503 72.5162 23.6912 70.4811 24.5788C69.0159 25.2178 67.4653 25.7361 65.8662 25.7691C64.2671 25.802 62.603 25.2974 61.5004 24.143C60.3978 22.9885 59.992 21.1283 60.7717 19.7368ZM56.2628 124.104C56.1943 123.598 56.1403 123.032 56.4488 122.623C57.7133 122.737 59.0184 122.28 59.9341 121.404C59.6556 120.831 58.7934 120.87 58.2488 121.203C58.0397 121.33 57.8477 121.487 57.6563 121.643C57.349 121.894 57.0431 122.144 56.6705 122.27C56.3102 121.915 56.3748 121.288 56.6744 120.881C56.974 120.473 57.4448 120.233 57.8981 120.007L60.752 118.585C60.2037 118.044 59.2897 118.037 58.5899 118.361C57.8901 118.684 57.3546 119.271 56.8393 119.843C56.2673 118.848 56.6755 117.419 57.6881 116.873L61.3854 114.879C61.6726 114.724 61.9772 114.565 62.3037 114.575C63.0105 114.596 63.4371 115.358 63.6305 116.036C64.1899 117.997 64.0193 120.081 63.844 122.112C63.5863 125.098 63.3244 128.107 62.4838 130.985C62.1941 131.977 61.7369 133.058 60.7745 133.443C59.7305 133.86 58.5025 133.226 57.8782 132.294C57.2538 131.362 57.0878 130.208 56.9377 129.097L56.2628 124.104ZM105.555 56.3945C105.955 56.3457 106.302 55.8848 106.107 55.5332L104.732 53.0559C104.551 52.7296 104.366 52.3895 104.342 52.0173C104.318 51.6452 104.504 51.2315 104.86 51.1164C105.37 50.9517 105.838 51.4427 106.133 51.8883C106.755 52.8271 107.297 53.8183 107.752 54.8477C108.291 54.1313 107.702 53.142 107.163 52.4249C106.625 51.7078 106.153 50.6081 106.827 50.015C107.492 49.4291 108.55 50.0296 109.059 50.7541C109.327 51.1346 109.547 51.5566 109.766 51.9771C110.191 52.7918 110.612 53.6006 111.371 54.0892C111.699 53.8896 111.536 53.3893 111.337 53.0616L108.79 48.8607C108.563 48.485 108.939 47.9756 109.375 47.9122C109.811 47.8487 110.231 48.0811 110.595 48.3281C112.347 49.5162 113.742 51.3349 114.071 53.4205C114.4 55.506 113.506 57.823 111.67 58.8758C111.114 59.1942 110.495 59.3926 109.866 59.5145C106.038 60.2562 101.847 57.8138 100.62 54.125C100.432 53.5605 100.386 52.7892 100.92 52.5218C101.326 52.318 101.817 52.5602 102.156 52.8632C102.645 53.301 102.994 53.8612 103.344 54.4216C103.68 54.9615 104.017 55.5017 104.479 55.9331C104.774 56.2078 105.154 56.4433 105.555 56.3945ZM65.6128 60.5391C66.0831 60.5536 66.5707 60.5686 66.9617 60.8209C67.393 61.0992 67.5809 61.8037 67.1724 62.1141C67.0178 62.2316 66.8172 62.2659 66.6253 62.2965C64.8407 62.5817 62.8049 62.8035 61.4177 61.6492C61.1058 61.7911 61.0147 62.2186 61.142 62.5358C61.2693 62.8529 61.5526 63.0787 61.8361 63.2708C63.0951 64.1237 64.6022 64.6082 66.1241 64.6492C65.1274 65.5093 63.6685 65.8019 62.4154 65.3931C61.9235 65.2327 61.2316 65.0496 61.014 65.5175C61.9791 66.4367 63.452 66.5074 64.787 66.5247C62.4022 67.6571 59.2732 66.9195 57.6503 64.8426C57.5348 64.6947 57.2741 64.7702 57.1824 64.9338C57.0906 65.0974 57.1156 65.2985 57.1432 65.4839C57.2836 66.4276 57.4764 67.4652 58.2281 68.056C58.626 68.3688 59.1197 68.505 59.6138 68.6413C59.8109 68.6957 60.008 68.7501 60.1992 68.8157C60.8695 69.0458 61.5622 69.5509 61.5686 70.2573C59.4094 70.4427 57.2957 69.2234 55.9885 67.5011C54.6813 65.7787 54.0808 63.6195 53.8039 61.4778C53.7323 60.9242 53.6819 60.351 53.8434 59.8165C54.1649 58.7522 55.2199 58.1088 56.1924 57.5644C56.8977 57.1695 57.8705 56.8056 58.43 57.3879C60.2531 59.2851 62.8338 60.4389 65.4682 60.5344C65.5161 60.5362 65.5644 60.5377 65.6128 60.5391ZM70.2441 64.3649L97.8766 56.7429C99.0799 56.411 100.504 56.1207 101.467 56.9126C90.5266 60.2815 79.4459 63.1985 68.2631 65.6535C67.6542 65.7872 66.7864 65.7604 66.6803 65.1483C67.0478 65.1618 67.0463 64.7513 67.0448 64.3171C67.0433 63.8897 67.0417 63.4394 67.392 63.3482L99.5933 54.9682C99.788 54.9175 100.035 54.8836 100.155 55.045C100.349 55.3072 99.9513 55.6003 99.6362 55.6876L68.9246 64.1948C69.2034 64.5764 69.7876 64.4908 70.2441 64.3649ZM101.399 62.1685C99.4057 63.4995 96.8748 63.8489 94.4917 63.5673C92.1087 63.2858 89.8369 62.4216 87.6286 61.4859L100.849 57.7935C101.313 57.6641 101.885 57.5623 102.212 57.9142C104.894 60.8022 109.776 61.3176 113.006 59.054C112.63 60.8512 110.998 62.3132 109.165 62.4968C108.12 62.6013 107.092 62.3312 106.069 62.0625C105.797 61.9912 105.526 61.92 105.255 61.856C103.963 61.5504 102.502 61.4319 101.399 62.1685ZM64.8645 40.0516C65.0533 39.7823 65.4597 39.6338 65.7214 39.8336C67.2555 41.0052 69.3883 41.3512 71.2162 40.7249C71.7996 40.5251 72.4633 40.9389 72.7042 41.5048C72.945 42.0708 72.8478 42.7265 72.6362 43.3039C71.992 45.0621 70.2578 46.3702 68.3846 46.5109C66.5114 46.6516 64.6 45.6175 63.6984 43.9754C63.4201 43.4685 63.3273 42.6739 63.8641 42.4554C64.3996 42.2374 64.5529 41.5658 64.6109 40.9923L64.6126 40.9749C64.6451 40.6533 64.6791 40.3162 64.8645 40.0516ZM115.954 54.1262C115.738 54.1845 115.51 54.2416 115.294 54.184C115.078 54.1264 114.887 53.9101 114.941 53.694C116.874 53.3883 118.739 52.6688 120.374 51.5984C121.011 51.1815 121.687 50.4549 121.366 49.7665C121.153 49.3101 120.581 49.1344 120.076 49.1549C119.345 49.1847 118.663 49.5114 118.006 49.8318L114.46 51.56C114.295 51.3655 114.364 51.0526 114.538 50.8665C114.706 50.6871 114.944 50.5951 115.175 50.5062L115.2 50.4963C116.81 49.8737 118.31 48.97 119.61 47.8385C119.991 47.5072 119.793 46.8244 119.358 46.5674C118.923 46.3104 118.377 46.3611 117.88 46.4536C116.438 46.722 115.05 47.2764 113.821 48.0749C113.216 48.468 112.357 48.9033 111.863 48.3792C113.198 47.0305 115.029 46.3107 116.802 45.6274L120.234 44.3051C120.472 44.2132 120.73 44.1198 120.978 44.183C121.315 44.2691 121.513 44.6087 121.666 44.9204C122.533 46.689 123.171 48.5686 123.56 50.4983C123.616 50.7783 123.663 51.0876 123.518 51.3341C123.387 51.5576 123.131 51.672 122.891 51.7709C120.632 52.702 118.313 53.4892 115.954 54.1262ZM99.7235 54.2443C99.595 54.3805 99.4034 54.4337 99.2219 54.481L67.7075 62.7027C68.1967 61.5251 69.6348 61.1223 70.8844 60.8506C79.5795 58.9597 88.0973 56.3521 96.6058 53.7472C97.0896 53.5991 97.5735 53.451 98.0573 53.303C98.4771 53.1746 98.9343 53.0468 99.3456 53.2002C99.7569 53.3536 100.024 53.9254 99.7235 54.2443ZM57.0707 22.8887C57.2638 22.259 57.5794 21.3888 58.0733 20.9513C58.3252 20.7282 58.6662 20.4903 58.9693 20.637C59.1598 20.7292 59.2533 20.9424 59.3314 21.1386C59.4482 21.4319 59.6151 21.8253 59.7819 22.2187C59.9487 22.6121 60.1156 23.0055 60.2324 23.2989C60.3963 23.7105 60.5548 24.35 60.2543 24.5579C58.9693 25.4466 59.2617 28.6913 59.8371 30.1842C59.9745 30.5407 60.0924 31.2711 59.9739 31.8037C59.8555 32.3362 59.2617 32.8152 58.776 32.5635C58.4974 32.419 58.0556 31.6537 57.8955 31.3766C57.8809 31.3512 57.8686 31.33 57.8591 31.3137C55.4919 27.2777 56.8041 23.6321 57.0403 22.9758C57.055 22.935 57.0655 22.9058 57.0707 22.8887ZM67.4555 66.5888C69.5599 66.2002 71.6426 65.6952 73.6909 65.0768C73.7226 65.0672 73.7544 65.0576 73.7862 65.0479C74.4238 64.8549 75.0708 64.659 75.7361 64.6623C75.6525 65.7116 75.0675 66.6836 74.2651 67.3681C73.4627 68.0527 72.458 68.4696 71.4288 68.7068C70.6485 68.8866 69.8256 68.9675 69.0501 68.7678C68.2746 68.5681 67.5513 68.0516 67.2564 67.3096C67.1508 67.0436 67.1732 66.6409 67.4555 66.5888ZM70.0645 60.3291C68.7223 60.5185 67.3037 60.4215 66.0955 59.809C65.8401 59.6796 65.9724 59.2904 66.1528 59.0686C67.0803 57.9282 68.4853 57.1862 69.9532 57.0615C71.421 56.9367 72.9318 57.431 74.0397 58.3985C74.2229 58.5584 74.409 58.8114 74.2854 59.0204C74.2202 59.1305 74.09 59.1813 73.9693 59.2244C72.6934 59.6806 71.4066 60.1396 70.0645 60.3291ZM65.9293 47.9239C64.736 47.551 63.8021 46.6047 63.1198 45.5603C62.7062 44.9272 62.3678 44.2508 62.0292 43.5741C61.8093 43.1345 61.5893 42.6948 61.3485 42.2666C61.7907 42.1935 62.2211 42.4939 62.4663 42.8677C62.6414 43.1346 62.7475 43.4367 62.8537 43.739C62.8962 43.8601 62.9388 43.9812 62.9857 44.1001C63.868 46.3323 66.4959 47.6709 68.8624 47.2285C71.229 46.7861 73.1481 44.709 73.5584 42.3449C73.6015 42.0965 73.6798 41.7893 73.9279 41.74C74.196 41.9631 74.208 42.3664 74.1607 42.7113C73.8173 45.2141 71.5401 47.0975 69.1074 47.8086C68.0751 48.1104 66.9558 48.2447 65.9293 47.9239ZM113.236 49.4225C114.727 48.2629 116.485 47.4454 118.334 47.0513C118.557 47.0039 118.89 47.0526 118.87 47.278C118.863 47.3493 118.817 47.4098 118.771 47.4649C117.852 48.5692 116.507 49.2154 115.206 49.8287C114.841 50.0005 114.457 50.1764 114.054 50.1516C113.652 50.1267 113.236 49.8244 113.236 49.4225ZM119.689 49.9783C119.881 49.9173 120.09 49.86 120.279 49.9304C120.467 50.0007 120.592 50.2586 120.459 50.4093C119.317 51.7079 117.609 52.3487 115.943 52.8205C115.507 52.9439 114.866 52.9407 114.792 52.4954C116.269 51.3927 117.931 50.5381 119.689 49.9783ZM74.8586 30.9537C74.955 30.3594 75.0701 29.6494 75.0701 29.1902C75.0701 28.5594 75.1662 27.7878 75.7565 27.5631C76.3224 27.3477 76.9619 27.8645 77.0708 28.4582C77.1798 29.052 76.5067 31.4493 76.1725 31.9527C76.0197 32.1828 75.8421 32.4122 75.5907 32.5279C75.3394 32.6435 74.9972 32.6061 74.8433 32.3768C74.7632 32.2575 74.7452 32.1084 74.7315 31.9655C74.7178 31.8221 74.7823 31.4242 74.8586 30.9537ZM74.8722 23.4862C74.9017 23.5284 74.9144 23.5797 74.9263 23.6298C75.1714 24.6668 75.2665 25.739 75.2078 26.8028C74.9265 26.9289 74.6936 26.5549 74.611 26.2588L74.2575 24.9926C74.1184 24.4942 74.0063 23.8843 74.3777 23.5228C74.5125 23.3916 74.7646 23.332 74.8722 23.4862ZM59.993 34.7697C59.6276 34.5181 59.3313 34.3141 59.3313 33.6916C59.3313 32.9552 60.13 32.2375 60.304 32.3768C60.9369 32.8836 62.0743 35.3967 62.1313 36.2036C61.6551 36.0099 61.304 35.7456 60.6632 35.2631C60.5237 35.1581 60.3705 35.0427 60.1992 34.9155C60.1291 34.8634 60.0599 34.8158 59.993 34.7697ZM64.1463 63.4799L65.437 63.2079C65.5979 63.174 65.7936 63.1507 65.9012 63.2747C66.1088 63.5136 65.7001 63.8154 65.383 63.8213C64.9493 63.8293 64.514 63.7092 64.1463 63.4799ZM103.325 51.6636C103.559 51.6899 103.756 51.987 103.602 52.1642L103.588 52.1802C103.386 52.3337 103.154 52.4958 102.903 52.4597C102.652 52.4236 102.475 52.0571 102.683 51.9121C102.876 51.7779 103.092 51.6372 103.325 51.6636ZM105.182 55.5086L104.889 55.4658L104.86 55.463L104.239 54.5103C104.784 54.3346 105.391 54.9772 105.182 55.5086ZM103.817 53.7893C103.578 53.8008 103.387 53.5042 103.496 53.2924C103.605 53.0806 103.959 53.0635 104.088 53.2638C104.218 53.4641 104.056 53.7778 103.817 53.7893ZM71.2393 22.7209L68.9958 23.7794C67.2817 24.5881 65.1285 24.3786 63.6038 23.2547C63.3886 23.205 63.202 23.4614 63.2384 23.6784C63.2748 23.8955 63.4518 24.0597 63.6293 24.1908C64.8586 25.0986 66.5393 25.2124 68.0221 24.8361C69.5049 24.4599 70.8347 23.6498 72.123 22.8273C72.0297 22.5015 71.5467 22.5759 71.2393 22.7209ZM69.13 27.6318C68.9457 27.7961 68.6265 27.573 68.6295 27.3266C68.6325 27.0801 68.833 26.882 69.0399 26.7468C69.9072 26.1799 71.1507 26.2679 71.929 26.9512C71.7572 27.2326 71.3558 27.1673 71.0176 27.1124L70.9394 27.0998C70.2974 26.9992 69.6144 27.2001 69.13 27.6318ZM64.9748 28.563C65.2691 28.4961 65.5806 28.2717 65.5526 27.9721C65.529 27.7196 65.2741 27.552 65.0289 27.484C64.4508 27.3238 63.787 27.5321 63.4055 27.9935C63.0239 28.4549 62.9457 29.144 63.2142 29.6787C63.3434 29.5635 63.4487 29.4218 63.5535 29.2808C63.7089 29.0715 63.8631 28.8639 64.0924 28.7477C64.266 28.6596 64.4604 28.6362 64.6555 28.6127H64.6555L64.6556 28.6127C64.7629 28.5997 64.8704 28.5868 64.9748 28.563ZM70.8337 31.8868C71.1897 31.8818 71.4299 31.5153 71.5194 31.1719C71.7034 30.4657 71.5162 29.6742 71.035 29.1242C70.8171 28.8752 70.446 28.668 70.1688 28.8493C70.083 28.9054 70.0215 28.9915 69.9718 29.0809C69.6241 29.7069 69.7983 30.4897 70.0685 31.1526C70.2106 31.5009 70.4563 31.8922 70.8337 31.8868ZM66.3324 31.8883L66.2264 30.7871C66.186 30.368 66.0961 29.8753 65.7128 29.698C65.1892 29.4559 64.6361 30.036 64.4989 30.5947C64.3515 31.1947 64.4366 31.8483 64.7327 32.391C65.0013 32.8832 65.6699 33.2956 66.097 32.9312C66.38 32.6897 66.368 32.2579 66.3324 31.8883ZM65.448 114.429C68.3994 114.341 71.3509 114.255 74.3024 114.17C74.6266 114.161 74.9748 114.158 75.2438 114.338C75.4934 114.506 75.6299 114.826 75.5777 115.121L66.9133 115.283C66.5914 115.289 66.2583 115.293 65.9622 115.167C65.6662 115.042 65.4162 114.748 65.448 114.429ZM68.4798 35.4523C68.1635 35.3623 68.3126 34.8944 68.4613 34.602C68.9419 33.6573 68.6711 32.4987 68.1899 31.5543L68.178 31.5309C68.0712 31.3217 67.9571 31.0982 67.995 30.8679C68.0344 30.6289 68.3366 30.4302 68.5255 30.5826C68.5823 30.6284 68.6168 30.6955 68.6496 30.7606C69.0109 31.4778 69.3654 32.215 69.483 33.0088C69.6007 33.8027 69.4491 34.6741 68.9028 35.2637C68.7923 35.383 68.6365 35.4969 68.4798 35.4523ZM68.9518 38.461C70.4332 38.2243 71.6214 36.787 71.5707 35.2929C71.5676 35.204 71.5596 35.1115 71.5138 35.0352C71.3851 34.8213 71.0353 34.8712 70.8702 35.0585C70.7343 35.2127 70.6827 35.417 70.6318 35.6185C70.6209 35.6619 70.6099 35.7052 70.5982 35.7477C70.4002 36.467 69.9074 37.1009 69.258 37.4718C69.2264 37.4899 69.1941 37.5076 69.1617 37.5255L69.1616 37.5255C68.9719 37.6299 68.7769 37.7372 68.6774 37.925C68.5609 38.1449 68.7053 38.5003 68.9518 38.461ZM77.9972 128.443C78.0605 130.217 78.2583 135.848 78.0271 136.87C77.9842 137.06 77.9142 137.276 77.7316 137.345C77.368 137.483 77.1546 136.939 77.1501 136.551C77.1135 133.41 77.0769 129.718 77.0403 126.027V126.027L77.0402 126.019V126.019C77.0036 122.33 76.967 118.642 76.9304 115.503C77.5334 115.503 77.7316 117.622 77.7316 118.991C77.7316 123.591 77.9972 128.443 77.9972 128.443ZM57.2488 89.4272C57.1605 89.376 57.0578 89.3246 56.9524 89.2719C56.5324 89.0617 56.0704 88.8306 56.3135 88.5051C62.7431 88.7825 69.1876 88.7181 75.6104 88.3124C77.4294 88.1975 79.4812 87.9323 80.5625 86.4703C80.6058 86.4117 80.6475 86.3512 80.6893 86.2906C80.8332 86.0822 80.9776 85.8728 81.1891 85.7377C81.462 85.5633 81.8988 85.5854 82.0353 85.8784C81.8426 87.4457 80.3683 88.7522 78.7836 88.7599C78.0902 88.7633 77.8552 89.6652 77.7673 90.3505C77.6794 91.0359 77.205 91.9138 76.5541 91.6754C76.7184 91.1135 76.8248 90.5347 76.871 89.9512C76.8865 89.7556 76.8825 89.5285 76.7305 89.4036C76.6126 89.3067 76.4449 89.3062 76.2921 89.3106L59.322 89.7929C59.2144 89.796 59.0958 89.8034 59.019 89.8785C58.9252 89.9702 58.9338 90.1204 58.9491 90.2504L60.1536 100.482C60.1801 100.707 60.2718 100.995 60.4993 100.996L70.1194 101.049C70.6308 101.052 71.3587 101.441 71.0462 101.844C70.9184 102.01 70.6784 102.025 70.4691 102.026L60.6786 102.065C60.2652 102.067 60.1483 102.627 60.1635 103.038L60.3193 107.249C59.1433 106.414 59.0626 104.737 59.0544 103.299C59.0304 99.1057 58.6543 94.9148 57.9313 90.7842C57.841 90.2686 57.7026 89.6906 57.2488 89.4272Z" fill="#00160A"/>
<path fill-rule="evenodd" clip-rule="evenodd" d="M79.0319 109.303C79.4347 108.393 80.3732 107.742 81.3699 107.683C81.6289 107.667 81.923 107.705 82.0812 107.91C82.2394 108.115 82.1036 108.505 81.8463 108.471C81.2285 108.39 80.6119 108.704 80.1784 109.15C79.7449 109.596 79.4621 110.163 79.1861 110.719C78.7895 110.396 78.8251 109.77 79.0319 109.303Z" fill="#00160A"/>
<path fill-rule="evenodd" clip-rule="evenodd" d="M123.053 22.1949C123.559 22.2426 124.029 21.95 124.449 21.6635C125.616 20.8671 126.873 19.7812 126.797 18.373C126.772 17.9258 126.611 17.505 126.449 17.0838C126.38 16.9035 126.31 16.7231 126.252 16.5406C125.946 15.5871 125.934 14.5819 125.923 13.574C125.914 12.7473 125.904 11.9189 125.732 11.1159C125.671 10.828 125.547 10.5009 125.264 10.419C125.104 10.3728 124.934 10.4197 124.774 10.4664L119.674 11.9584C118.714 12.2392 118.509 13.4819 118.481 14.479L118.406 17.192C118.103 17.2299 117.815 17.1114 117.528 16.993C117.418 16.9478 117.308 16.9025 117.197 16.866C116.108 16.5064 114.79 17.1111 114.355 18.1701C113.92 19.2292 114.434 20.5815 115.464 21.087C116.494 21.5925 117.883 21.1741 118.459 20.1847C118.851 19.5128 118.874 18.697 118.887 17.92L118.911 16.4611C118.92 15.9159 119.534 15.6135 120.052 15.4402C121.649 14.9063 123.261 14.4163 124.886 13.9708C125.046 13.9268 125.246 13.8938 125.355 14.0187C125.415 14.0861 125.428 14.1812 125.438 14.2703L125.66 16.1803C125.693 16.4636 125.661 16.8445 125.382 16.9046C124.031 17.1946 122.831 18.114 122.202 19.3401C121.934 19.8624 121.765 20.4623 121.884 21.0369C122.002 21.6115 122.467 22.1397 123.053 22.1949ZM125.116 11.2687C125.173 11.3264 125.189 11.4114 125.203 11.4911L125.358 12.3877C125.398 12.6245 125.437 12.8789 125.334 13.0963C125.171 13.4397 124.739 13.543 124.363 13.6168C123.497 13.7872 122.641 14.0134 121.804 14.2935C121.104 14.5275 120.418 14.7989 119.732 15.0701C119.674 15.0931 119.616 15.116 119.558 15.1389C119.395 15.2032 119.17 15.2496 119.077 15.1024C119.054 15.0655 119.044 15.0219 119.036 14.9791C118.872 14.1097 119.275 13.1613 120.017 12.6703C120.425 12.3999 120.908 12.2673 121.381 12.1387L124.71 11.2351C124.848 11.1978 125.016 11.1677 125.116 11.2687ZM118.4 18.4187C118.386 19.259 118.182 20.2199 117.435 20.6266C116.842 20.9492 116.067 20.7941 115.529 20.3889C114.897 19.9129 114.55 18.9652 115.012 18.3275C115.205 18.0618 115.505 17.8897 115.816 17.777C116.531 17.5183 117.348 17.5443 118.044 17.848C118.155 17.8964 118.268 17.9563 118.333 18.0578C118.399 18.1631 118.402 18.2946 118.4 18.4187ZM29.3002 20.2964C29.3865 20.5616 29.7628 20.5514 30.0353 20.4877L32.5122 19.9084C32.4431 19.2654 32.3178 18.6283 32.1381 18.0068C32.0852 17.8236 32.0214 17.6321 31.8773 17.5067C31.6541 17.3125 31.3201 17.3394 31.0263 17.3775L27.2219 17.871C26.9607 17.9049 26.6121 18.0741 26.7115 18.3171C27.5825 20.4465 28.2694 22.6506 28.7623 24.8969C28.8566 25.3266 28.8407 25.9301 28.4095 26.0243C27.1607 26.2973 26.0922 27.2739 25.7118 28.4901C25.5948 28.8642 25.5416 29.2798 25.693 29.6414C25.7751 29.8375 25.9127 30.006 26.0671 30.1525C26.8077 30.8556 27.9891 31.0511 28.9181 30.6244C29.8471 30.1976 30.465 29.1755 30.4094 28.1578C30.3884 27.7733 30.2811 27.3995 30.1744 27.0294L27.7424 18.5939L30.9624 18.3421C31.2859 18.3602 31.4225 18.8181 31.2517 19.0923C31.0808 19.3665 30.7413 19.4806 30.4237 19.5442C30.378 19.5534 30.3318 19.5621 30.2855 19.5708C30.0103 19.6224 29.7304 19.675 29.5072 19.839C29.3627 19.9451 29.2448 20.1262 29.3002 20.2964Z" fill="#FFB61D"/>
<path fill-rule="evenodd" clip-rule="evenodd" d="M78.5017 106.575C78.405 106.7 78.1867 106.664 78.0936 106.536C78.0005 106.408 78.0088 106.231 78.0596 106.082C78.1504 105.814 78.3561 105.601 78.5716 105.417C79.1131 104.954 79.7579 104.612 80.4454 104.422C80.7165 104.347 81.0326 104.304 81.257 104.473C81.4814 104.642 81.4452 105.093 81.1651 105.118C80.1272 105.211 79.1374 105.752 78.5017 106.575Z" fill="#00160A"/>
</svg>
